<svg id="Ñëîé_1" data-name="Ñëîé 1" xmlns="http://www.w3.org/2000/svg" xmlns:xlink="http://www.w3.org/1999/xlink" viewBox="0 0 316.97 229.29"><defs><style>.cls-1{fill:#896eff;}.cls-1,.cls-7{opacity:0.2;}.cls-19,.cls-2,.cls-6,.cls-7{fill:#7d77d2;}.cls-3{fill:#584fc4;}.cls-22,.cls-4,.cls-9{fill:#fff;}.cls-5{opacity:0.5;}.cls-6{opacity:0.4;}.cls-8{fill:url(#Áåçûìÿííûé_ãðàäèåíò_3);}.cls-9{opacity:0.6;}.cls-10{fill:url(#Áåçûìÿííûé_ãðàäèåíò_3-2);}.cls-11{fill:url(#Áåçûìÿííûé_ãðàäèåíò_2);}.cls-12{fill:url(#Áåçûìÿííûé_ãðàäèåíò_3-3);}.cls-13{fill:url(#Áåçûìÿííûé_ãðàäèåíò_3-4);}.cls-14{fill:url(#Áåçûìÿííûé_ãðàäèåíò_2-2);}.cls-15{fill:#2318b2;}.cls-15,.cls-19{opacity:0.7;}.cls-16{fill:url(#Áåçûìÿííûé_ãðàäèåíò_3-5);}.cls-17{fill:url(#Áåçûìÿííûé_ãðàäèåíò_3-6);}.cls-18{fill:url(#Áåçûìÿííûé_ãðàäèåíò_2-3);}.cls-20{fill:url(#Áåçûìÿííûé_ãðàäèåíò_3-7);}.cls-21{fill:url(#Áåçûìÿííûé_ãðàäèåíò_3-8);}.cls-22{opacity:0.75;}.cls-23{fill:url(#Áåçûìÿííûé_ãðàäèåíò_3-9);}.cls-24{fill:url(#Áåçûìÿííûé_ãðàäèåíò_3-10);}.cls-25{fill:url(#Áåçûìÿííûé_ãðàäèåíò_2-4);}</style><linearGradient id="Áåçûìÿííûé_ãðàäèåíò_3" x1="148.37" y1="75.02" x2="214.53" y2="75.02" gradientUnits="userSpaceOnUse"><stop offset="0" stop-color="#796de8"/><stop offset="0.23" stop-color="#7367e6"/><stop offset="0.54" stop-color="#6255e0"/><stop offset="0.91" stop-color="#4538d6"/><stop offset="1" stop-color="#3d2fd3"/></linearGradient><linearGradient id="Áåçûìÿííûé_ãðàäèåíò_3-2" x1="130.64" y1="76.47" x2="209.48" y2="76.47" xlink:href="#Áåçûìÿííûé_ãðàäèåíò_3"/><linearGradient id="Áåçûìÿííûé_ãðàäèåíò_2" x1="119.76" y1="76.47" x2="261.99" y2="76.47" gradientUnits="userSpaceOnUse"><stop offset="0" stop-color="#4e42d7"/><stop offset="0.02" stop-color="#5449d8"/><stop offset="0.15" stop-color="#8179e3"/><stop offset="0.28" stop-color="#a8a2eb"/><stop offset="0.41" stop-color="#c7c4f2"/><stop offset="0.55" stop-color="#e0def8"/><stop offset="0.69" stop-color="#f1f0fc"/><stop offset="0.84" stop-color="#fcfbfe"/><stop offset="1" stop-color="#fff"/></linearGradient><linearGradient id="Áåçûìÿííûé_ãðàäèåíò_3-3" x1="-1243.08" y1="75.02" x2="-1176.93" y2="75.02" gradientTransform="matrix(-1, 0, 0, 1, -1130.17, 0)" xlink:href="#Áåçûìÿííûé_ãðàäèåíò_3"/><linearGradient id="Áåçûìÿííûé_ãðàäèåíò_3-4" x1="-1260.81" y1="76.47" x2="-1181.98" y2="76.47" gradientTransform="matrix(-1, 0, 0, 1, -1130.17, 0)" xlink:href="#Áåçûìÿííûé_ãðàäèåíò_3"/><linearGradient id="Áåçûìÿííûé_ãðàäèåíò_2-2" x1="-1271.7" y1="76.47" x2="-1129.47" y2="76.47" gradientTransform="matrix(-1, 0, 0, 1, -1130.17, 0)" xlink:href="#Áåçûìÿííûé_ãðàäèåíò_2"/><linearGradient id="Áåçûìÿííûé_ãðàäèåíò_3-5" x1="64.29" y1="120.21" x2="130.44" y2="120.21" xlink:href="#Áåçûìÿííûé_ãðàäèåíò_3"/><linearGradient id="Áåçûìÿííûé_ãðàäèåíò_3-6" x1="46.56" y1="121.66" x2="125.39" y2="121.66" xlink:href="#Áåçûìÿííûé_ãðàäèåíò_3"/><linearGradient id="Áåçûìÿííûé_ãðàäèåíò_2-3" x1="35.67" y1="121.66" x2="177.9" y2="121.66" xlink:href="#Áåçûìÿííûé_ãðàäèåíò_2"/><linearGradient id="Áåçûìÿííûé_ãðàäèåíò_3-7" x1="235.39" y1="149" x2="182.59" y2="125.38" xlink:href="#Áåçûìÿííûé_ãðàäèåíò_3"/><linearGradient id="Áåçûìÿííûé_ãðàäèåíò_3-8" x1="-754.33" y1="134.33" x2="-1008.18" y2="117.91" gradientTransform="matrix(-1, 0, 0, 1, -776.59, 0)" xlink:href="#Áåçûìÿííûé_ãðàäèåíò_3"/><linearGradient id="Áåçûìÿííûé_ãðàäèåíò_3-9" x1="-920.67" y1="2191.28" x2="-854.52" y2="2191.28" gradientTransform="matrix(0.5, 0.87, 0.87, -0.5, -1320.68, 1917.74)" xlink:href="#Áåçûìÿííûé_ãðàäèåíò_3"/><linearGradient id="Áåçûìÿííûé_ãðàäèåíò_3-10" x1="-938.4" y1="2192.73" x2="-859.56" y2="2192.73" gradientTransform="matrix(0.5, 0.87, 0.87, -0.5, -1320.68, 1917.74)" xlink:href="#Áåçûìÿííûé_ãðàäèåíò_3"/><linearGradient id="Áåçûìÿííûé_ãðàäèåíò_2-4" x1="-949.29" y1="2192.73" x2="-807.05" y2="2192.73" gradientTransform="matrix(0.5, 0.87, 0.87, -0.5, -1320.68, 1917.74)" xlink:href="#Áåçûìÿííûé_ãðàäèåíò_2"/></defs><title>features_1</title><polygon class="cls-1" points="31.32 113.28 13.44 102.95 31.32 92.63 49.2 102.95 31.32 113.28"/><polygon class="cls-2" points="31.32 76.98 13.44 66.66 13.44 87.31 31.32 97.63 49.21 87.31 49.21 66.66 31.32 76.98"/><polygon class="cls-2" points="31.32 97.64 13.44 87.31 13.44 66.66 31.32 76.98 31.32 97.64"/><polygon class="cls-3" points="49.21 87.31 31.32 97.64 31.32 76.98 49.21 66.66 49.21 87.31"/><polygon class="cls-2" points="31.32 76.98 13.44 66.66 31.32 56.33 49.2 66.66 31.32 76.98"/><polygon class="cls-4" points="31.32 76.98 13.44 66.66 13.44 67.55 31.32 77.88 49.2 67.56 49.21 66.66 31.32 76.98"/><polygon class="cls-1" points="17.95 229.29 0 218.92 17.95 208.55 35.91 218.92 17.95 229.29"/><polygon class="cls-2" points="17.95 192.85 0 182.48 0 203.22 17.95 213.58 35.91 203.22 35.91 182.48 17.95 192.85"/><polygon class="cls-2" points="17.95 213.58 0 203.22 0 182.48 17.95 192.85 17.95 213.58"/><polygon class="cls-3" points="35.91 203.22 17.95 213.58 17.95 192.85 35.91 182.48 35.91 203.22"/><polygon class="cls-2" points="17.95 192.85 0 182.48 17.95 172.12 35.91 182.48 17.95 192.85"/><polygon class="cls-4" points="17.95 192.85 0 182.48 0 183.38 17.95 193.75 35.91 183.38 35.91 182.48 17.95 192.85"/><g class="cls-5"><polygon class="cls-1" points="259.38 120.01 241.76 109.84 259.38 99.67 277 109.84 259.38 120.01"/></g><path class="cls-6" d="M259.38,137.67c-11.61,0-23.22-2.55-32.06-7.66-8.6-5-13.33-11.57-13.33-18.61s4.73-13.65,13.33-18.62c17.68-10.2,46.44-10.2,64.12,0,8.6,5,13.33,11.58,13.33,18.62S300,125.05,291.44,130C282.6,135.12,271,137.67,259.38,137.67Zm0-52.18c-11.54,0-23.09,2.54-31.87,7.61-8.48,4.9-13.15,11.39-13.15,18.3s4.67,13.4,13.15,18.29c17.57,10.15,46.17,10.15,63.74,0l.1.16-.1-.16c8.48-4.9,13.15-11.4,13.15-18.3S299.73,98,291.25,93.1C282.46,88,270.92,85.49,259.38,85.49Z"/><path class="cls-7" d="M259.38,144.71c-14.73,0-29.46-3.24-40.68-9.72-10.9-6.29-16.91-14.67-16.91-23.59s6-17.3,16.91-23.6c22.43-13,58.93-13,81.36,0C311,94.1,317,102.48,317,111.4s-6,17.3-16.91,23.59C288.85,141.47,274.11,144.71,259.38,144.71Zm0-66.25c-14.67,0-29.33,3.22-40.5,9.66-10.78,6.23-16.72,14.49-16.72,23.28s5.94,17,16.72,23.27c22.33,12.89,58.67,12.9,81,0,10.78-6.22,16.72-14.49,16.72-23.27s-5.94-17.05-16.72-23.28C288.71,81.68,274,78.46,259.38,78.46Z"/><path class="cls-2" d="M259.38,132.13c-9.15,0-18.3-2-25.27-6-6.78-3.91-10.52-9.13-10.52-14.69s3.74-10.78,10.52-14.7c13.94-8,36.6-8,50.54,0,6.78,3.92,10.52,9.14,10.52,14.7s-3.74,10.78-10.52,14.69h0C277.68,130.12,268.53,132.13,259.38,132.13Zm0-41.09c-9.08,0-18.17,2-25.08,6-6.67,3.85-10.34,9-10.34,14.38s3.67,10.52,10.34,14.37c13.83,8,36.33,8,50.16,0,6.67-3.84,10.34-9,10.34-14.37S291.13,100.87,284.46,97C277.55,93,268.46,91,259.38,91Z"/><polygon class="cls-2" points="257.35 91.94 255.33 71.7 238.81 83.57 240.83 103.81 259.37 112.18 275.89 100.32 257.35 91.94"/><polygon class="cls-2" points="240.83 103.81 238.81 83.57 255.33 71.7 257.35 91.94 240.83 103.81"/><polygon class="cls-3" points="259.37 112.18 240.83 103.81 257.35 91.94 275.89 100.32 259.37 112.18"/><polygon class="cls-2" points="257.35 91.94 255.33 71.7 273.87 80.08 275.89 100.32 257.35 91.94"/><polygon class="cls-4" points="257.35 91.94 255.33 71.7 254.62 72.22 256.63 92.46 275.17 100.83 275.89 100.32 257.35 91.94"/><g class="cls-5"><path class="cls-8" d="M209.51,47.73,139.44,7.17a2.77,2.77,0,0,0-2.91-.2h0L132.32,9.4l2.74,2v2.23l-1.55.65.08,83.37,4.62,4.46,15.85,9.1,50.21,28.41h2.06c.09,0,.21-.25.32-.58l2.08,1.2-.66,3.16,4.29-2.47h0c.94-.52,1.54-1.77,1.54-3.55V56.1C213.89,52.88,211.93,49.13,209.51,47.73ZM207.63,135,140.06,95.85a2.4,2.4,0,0,1-1-1.91V13.75l14,9L205.42,54l1.49,2.31.83,36.32Z"/><path class="cls-9" d="M212.5,51,206,54.82l1,1.5.83,36.32L207.63,135l-1.21-.7c0,1.31,1.65,7.77,1.65,9.12l3.48-2,.81-.47h0c.94-.52,1.54-1.77,1.54-3.55V56.1A10.82,10.82,0,0,0,212.5,51Z"/><path class="cls-10" d="M205.1,50.28,135,9.71c-2.42-1.39-4.39.09-4.39,3.32V94.29c0,3.23,2,7,4.39,8.37l70.07,40.57c2.42,1.4,4.38-.09,4.38-3.31V58.65C209.48,55.43,207.52,51.68,205.1,50.28Zm.38,87.21c0,.74-.45,1.08-1,.76L135.65,98.4a2.4,2.4,0,0,1-1-1.91v-81c0-.73.45-1.07,1-.75l68.83,39.84a2.41,2.41,0,0,1,1,1.91Z"/><path class="cls-11" d="M205.1,50.28,135,9.71c-2.42-1.39-4.39.09-4.39,3.32V94.29c0,3.23,2,7,4.39,8.37l70.07,40.57c2.42,1.4,4.38-.09,4.38-3.31V58.65C209.48,55.43,207.52,51.68,205.1,50.28Zm.38,87.21c0,.74-.45,1.08-1,.76L135.65,98.4a2.4,2.4,0,0,1-1-1.91v-81c0-.73.45-1.07,1-.75l68.83,39.84a2.41,2.41,0,0,1,1,1.91Z"/><path class="cls-4" d="M140.06,95.85a2.4,2.4,0,0,1-1-1.91V16.67l-3.41-2c-.55-.32-1,0-1,.75v81a2.4,2.4,0,0,0,1,1.91l68.83,39.85c.55.32,1,0,1-.76v-3.76Z"/><path class="cls-6" d="M205.48,137.49c0,.74-.45,1.08-1,.76L135.65,98.4a2.4,2.4,0,0,1-1-1.91v-81c0-.73.45-1.07,1-.75l68.83,39.84a2.41,2.41,0,0,1,1,1.91Z"/></g><g class="cls-5"><path class="cls-12" d="M47.4,56.1v81.27c0,1.78.6,3,1.54,3.55h0l4.29,2.47-.66-3.16,2.08-1.2c.11.33.23.58.32.58H57l50.21-28.41,15.85-9.1,4.62-4.46.08-83.37-1.55-.65V11.39l2.74-2L124.76,7h0a2.77,2.77,0,0,0-2.91.2L51.78,47.73C49.36,49.13,47.4,52.88,47.4,56.1Zm6.15,36.54.83-36.32L55.86,54l52.4-31.28,14-9V93.94a2.4,2.4,0,0,1-1,1.91L53.66,135Z"/><path class="cls-9" d="M48.79,51l6.55,3.78-1,1.5-.83,36.32L53.66,135l1.21-.7c0,1.31-1.65,7.77-1.65,9.12l-3.48-2-.81-.47h0c-.94-.52-1.54-1.77-1.54-3.55V56.1A10.82,10.82,0,0,1,48.79,51Z"/><path class="cls-13" d="M51.81,58.65v81.27c0,3.22,2,4.71,4.38,3.31l70.07-40.57c2.42-1.39,4.38-5.14,4.38-8.37V13c0-3.23-2-4.71-4.38-3.32L56.19,50.28C53.77,51.68,51.81,55.43,51.81,58.65Zm4-2.2a2.41,2.41,0,0,1,1-1.91L125.64,14.7c.55-.32,1,0,1,.75v81a2.4,2.4,0,0,1-1,1.91L56.81,138.25c-.55.32-1,0-1-.76Z"/><path class="cls-14" d="M51.81,58.65v81.27c0,3.22,2,4.71,4.38,3.31l70.07-40.57c2.42-1.39,4.38-5.14,4.38-8.37V13c0-3.23-2-4.71-4.38-3.32L56.19,50.28C53.77,51.68,51.81,55.43,51.81,58.65Zm4-2.2a2.41,2.41,0,0,1,1-1.91L125.64,14.7c.55-.32,1,0,1,.75v81a2.4,2.4,0,0,1-1,1.91L56.81,138.25c-.55.32-1,0-1-.76Z"/><path class="cls-4" d="M121.23,95.85a2.4,2.4,0,0,0,1-1.91V16.67l3.41-2c.55-.32,1,0,1,.75v81a2.4,2.4,0,0,1-1,1.91L56.81,138.25c-.55.32-1,0-1-.76v-3.76Z"/><path class="cls-6" d="M55.81,137.49c0,.74.45,1.08,1,.76L125.64,98.4a2.4,2.4,0,0,0,1-1.91v-81c0-.73-.45-1.07-1-.75L56.81,54.54a2.41,2.41,0,0,0-1,1.91Z"/></g><polygon class="cls-2" points="130.65 102.35 111.41 91.25 111.41 113.46 130.65 124.56 149.88 113.46 149.88 91.25 130.65 102.35"/><polygon class="cls-2" points="130.65 124.56 111.41 113.46 111.41 91.25 130.65 102.35 130.65 124.56"/><polygon class="cls-3" points="149.88 113.46 130.65 124.56 130.65 102.35 149.88 91.25 149.88 113.46"/><polygon class="cls-2" points="130.65 102.35 111.41 91.25 130.64 80.14 149.88 91.25 130.65 102.35"/><polygon class="cls-4" points="130.65 102.35 112.25 91.73 111.41 92.21 130.65 103.31 149.88 92.21 149.04 91.73 130.65 102.35"/><polygon class="cls-2" points="155.63 116.61 136.39 105.5 136.39 127.71 155.63 138.81 174.86 127.71 174.86 105.5 155.63 116.61"/><polygon class="cls-2" points="155.63 138.81 136.39 127.71 136.39 105.5 155.63 116.61 155.63 138.81"/><polygon class="cls-3" points="174.86 127.71 155.63 138.81 155.63 116.61 174.86 105.5 174.86 127.71"/><polygon class="cls-2" points="155.63 116.61 136.39 105.5 155.63 94.4 174.86 105.5 155.63 116.61"/><polygon class="cls-4" points="155.63 116.61 137.23 105.98 136.39 106.47 155.63 117.57 174.86 106.47 174.03 105.98 155.63 116.61"/><polygon class="cls-2" points="180.61 130.86 161.38 119.76 161.38 141.97 180.61 153.07 199.84 141.97 199.84 119.76 180.61 130.86"/><polygon class="cls-2" points="180.61 153.07 161.38 141.97 161.38 119.76 180.61 130.86 180.61 153.07"/><polygon class="cls-3" points="199.84 141.97 180.61 153.07 180.61 130.86 199.84 119.76 199.84 141.97"/><polygon class="cls-2" points="180.61 130.86 161.38 119.76 180.61 108.65 199.84 119.76 180.61 130.86"/><polygon class="cls-4" points="180.61 130.86 162.21 120.24 161.38 120.72 180.61 131.82 199.84 120.72 199.84 119.76 180.61 130.86"/><polygon class="cls-2" points="105.66 117.57 86.43 106.47 86.43 128.67 105.66 139.78 124.89 128.67 124.89 106.47 105.66 117.57"/><polygon class="cls-2" points="105.66 139.78 86.43 128.67 86.43 106.47 105.66 117.57 105.66 139.78"/><polygon class="cls-3" points="124.89 128.67 105.66 139.78 105.66 117.57 124.89 106.47 124.89 128.67"/><polygon class="cls-2" points="105.66 117.57 86.43 106.47 105.66 95.36 124.89 106.47 105.66 117.57"/><polygon class="cls-4" points="105.66 117.57 87.26 106.95 86.43 107.43 105.66 118.53 124.89 107.43 124.06 106.95 105.66 117.57"/><polygon class="cls-2" points="130.65 131.82 111.41 120.72 111.41 142.93 130.65 154.03 149.88 142.93 149.88 120.72 130.65 131.82"/><polygon class="cls-2" points="130.65 154.03 111.41 142.93 111.41 120.72 130.65 131.82 130.65 154.03"/><polygon class="cls-3" points="149.88 142.93 130.65 154.03 130.65 131.82 149.88 120.72 149.88 142.93"/><polygon class="cls-2" points="130.65 131.82 111.41 120.72 130.64 109.62 149.88 120.72 130.65 131.82"/><polygon class="cls-4" points="130.65 131.82 112.25 121.2 111.41 121.68 130.65 132.79 149.88 121.68 149.04 121.2 130.65 131.82"/><polygon class="cls-2" points="155.63 146.08 136.39 134.97 136.39 157.18 155.63 168.29 174.86 157.18 174.86 134.97 155.63 146.08"/><polygon class="cls-2" points="155.63 168.29 136.39 157.18 136.39 134.97 155.63 146.08 155.63 168.29"/><polygon class="cls-3" points="174.86 157.18 155.63 168.29 155.63 146.08 174.86 134.97 174.86 157.18"/><polygon class="cls-2" points="155.63 146.08 136.39 134.97 155.63 123.87 174.86 134.98 155.63 146.08"/><polygon class="cls-4" points="155.63 146.08 137.23 135.46 136.39 135.94 155.63 147.04 174.86 135.94 174.86 134.97 155.63 146.08"/><polygon class="cls-2" points="80.68 132.79 61.44 121.68 61.44 143.89 80.68 155 99.91 143.89 99.91 121.68 80.68 132.79"/><polygon class="cls-2" points="80.68 155 61.44 143.89 61.44 121.68 80.68 132.79 80.68 155"/><polygon class="cls-3" points="99.91 143.89 80.68 155 80.68 132.79 99.91 121.68 99.91 143.89"/><polygon class="cls-2" points="80.68 132.79 61.44 121.68 80.68 110.58 99.91 121.68 80.68 132.79"/><polygon class="cls-4" points="80.68 132.79 61.44 121.68 61.44 122.65 80.68 133.75 99.91 122.65 99.08 122.17 80.68 132.79"/><polygon class="cls-2" points="105.66 147.04 86.43 135.94 86.43 158.15 105.66 169.25 124.89 158.15 124.89 135.94 105.66 147.04"/><polygon class="cls-2" points="105.66 169.25 86.43 158.15 86.43 135.94 105.66 147.04 105.66 169.25"/><polygon class="cls-3" points="124.89 158.15 105.66 169.25 105.66 147.04 124.89 135.94 124.89 158.15"/><polygon class="cls-2" points="105.66 147.04 86.43 135.94 105.66 124.83 124.89 135.94 105.66 147.04"/><polygon class="cls-4" points="105.66 147.04 86.43 135.94 86.43 136.9 105.66 148.01 124.89 136.9 124.06 136.42 105.66 147.04"/><polygon class="cls-2" points="130.65 161.3 111.41 150.19 111.41 172.4 130.65 183.51 149.88 172.4 149.88 150.19 130.65 161.3"/><polygon class="cls-2" points="130.65 183.51 111.41 172.4 111.41 150.19 130.65 161.3 130.65 183.51"/><polygon class="cls-3" points="149.88 172.4 130.65 183.51 130.65 161.3 149.88 150.19 149.88 172.4"/><polygon class="cls-2" points="130.65 161.3 111.41 150.19 130.64 139.09 149.88 150.19 130.65 161.3"/><polygon class="cls-4" points="130.65 161.3 111.41 150.19 111.41 151.16 130.65 162.26 149.88 151.16 149.88 150.19 130.65 161.3"/><polygon class="cls-2" points="130.65 72.88 111.41 61.77 111.41 83.98 130.65 95.09 149.88 83.98 149.88 61.77 130.65 72.88"/><polygon class="cls-2" points="130.65 95.09 111.41 83.98 111.41 61.77 130.65 72.88 130.65 95.09"/><polygon class="cls-3" points="149.88 83.98 130.65 95.09 130.65 72.88 149.88 61.77 149.88 83.98"/><polygon class="cls-2" points="130.65 72.88 111.41 61.77 130.64 50.67 149.88 61.77 130.65 72.88"/><polygon class="cls-4" points="130.65 72.88 112.25 62.26 111.41 62.74 130.65 73.84 149.88 62.74 149.04 62.26 130.65 72.88"/><polygon class="cls-15" points="130.65 157.68 117.52 150.11 130.64 142.53 143.76 150.11 130.65 157.68"/><polygon class="cls-15" points="105.66 143.43 92.54 135.85 105.66 128.28 118.78 135.85 105.66 143.43"/><polygon class="cls-15" points="155.63 142.46 142.51 134.89 155.63 127.31 168.75 134.89 155.63 142.46"/><polygon class="cls-15" points="180.66 127.42 167.54 119.84 180.66 112.27 193.78 119.84 180.66 127.42"/><polygon class="cls-15" points="80.68 129.17 67.56 121.6 80.68 114.02 93.8 121.6 80.68 129.17"/><polygon class="cls-2" points="155.63 87.13 136.39 76.03 136.39 98.24 155.63 109.34 174.86 98.24 174.86 76.03 155.63 87.13"/><polygon class="cls-2" points="155.63 109.34 136.39 98.24 136.39 76.03 155.63 87.13 155.63 109.34"/><polygon class="cls-3" points="174.86 98.24 155.63 109.34 155.63 87.13 174.86 76.03 174.86 98.24"/><polygon class="cls-2" points="155.63 87.13 136.39 76.03 155.63 64.92 174.86 76.03 155.63 87.13"/><polygon class="cls-4" points="155.63 87.13 137.23 76.51 136.39 76.99 155.63 88.1 174.86 76.99 174.03 76.51 155.63 87.13"/><polygon class="cls-2" points="180.61 101.39 161.38 90.28 161.38 112.49 180.61 123.6 199.84 112.49 199.84 90.28 180.61 101.39"/><polygon class="cls-2" points="180.61 123.6 161.38 112.49 161.38 90.28 180.61 101.39 180.61 123.6"/><polygon class="cls-3" points="199.84 112.49 180.61 123.6 180.61 101.39 199.84 90.28 199.84 112.49"/><polygon class="cls-2" points="180.61 101.39 161.38 90.28 180.61 79.18 199.84 90.28 180.61 101.39"/><polygon class="cls-4" points="180.61 101.39 162.21 90.77 161.38 91.25 180.61 102.35 199.84 91.25 199.84 90.28 180.61 101.39"/><polygon class="cls-2" points="105.66 88.1 86.43 76.99 86.43 99.2 105.66 110.31 124.89 99.2 124.89 76.99 105.66 88.1"/><polygon class="cls-2" points="105.66 110.31 86.43 99.2 86.43 76.99 105.66 88.1 105.66 110.31"/><polygon class="cls-3" points="124.89 99.2 105.66 110.31 105.66 88.1 124.89 76.99 124.89 99.2"/><polygon class="cls-2" points="105.66 88.1 86.43 76.99 105.66 65.89 124.89 76.99 105.66 88.1"/><polygon class="cls-4" points="105.66 88.1 87.26 77.47 86.43 77.96 105.66 89.06 124.89 77.96 124.06 77.47 105.66 88.1"/><polygon class="cls-2" points="130.65 102.35 111.41 91.25 111.41 113.46 130.65 124.56 149.88 113.46 149.88 91.25 130.65 102.35"/><polygon class="cls-2" points="130.65 124.56 111.41 113.46 111.41 91.25 130.65 102.35 130.65 124.56"/><polygon class="cls-3" points="149.88 113.46 130.65 124.56 130.65 102.35 149.88 91.25 149.88 113.46"/><polygon class="cls-2" points="130.65 102.35 111.41 91.25 130.64 80.14 149.88 91.25 130.65 102.35"/><polygon class="cls-4" points="130.65 102.35 112.25 91.73 111.41 92.21 130.65 103.31 149.88 92.21 149.04 91.73 130.65 102.35"/><polygon class="cls-2" points="155.63 116.61 136.39 105.5 136.39 127.71 155.63 138.81 174.86 127.71 174.86 105.5 155.63 116.61"/><polygon class="cls-2" points="155.63 138.81 136.39 127.71 136.39 105.5 155.63 116.61 155.63 138.81"/><polygon class="cls-3" points="174.86 127.71 155.63 138.81 155.63 116.61 174.86 105.5 174.86 127.71"/><polygon class="cls-2" points="155.63 116.61 136.39 105.5 155.63 94.4 174.86 105.5 155.63 116.61"/><polygon class="cls-4" points="155.63 116.61 137.23 105.98 136.39 106.47 155.63 117.57 174.86 106.47 174.86 105.5 155.63 116.61"/><polygon class="cls-2" points="80.68 103.32 61.44 92.21 61.44 114.42 80.68 125.52 99.91 114.42 99.91 92.21 80.68 103.32"/><polygon class="cls-2" points="80.68 125.52 61.44 114.42 61.44 92.21 80.68 103.32 80.68 125.52"/><polygon class="cls-3" points="99.91 114.42 80.68 125.52 80.68 103.32 99.91 92.21 99.91 114.42"/><polygon class="cls-2" points="80.68 103.32 61.44 92.21 80.68 81.11 99.91 92.21 80.68 103.32"/><polygon class="cls-4" points="80.68 103.32 62.28 92.69 61.44 93.17 80.68 104.28 99.91 93.17 99.08 92.69 80.68 103.32"/><polygon class="cls-2" points="105.66 117.57 86.43 106.47 86.43 128.67 105.66 139.78 124.89 128.67 124.89 106.47 105.66 117.57"/><polygon class="cls-2" points="105.66 139.78 86.43 128.67 86.43 106.47 105.66 117.57 105.66 139.78"/><polygon class="cls-3" points="124.89 128.67 105.66 139.78 105.66 117.57 124.89 106.47 124.89 128.67"/><polygon class="cls-2" points="105.66 117.57 86.43 106.47 105.66 95.36 124.89 106.47 105.66 117.57"/><polygon class="cls-4" points="105.66 117.57 86.43 106.47 86.43 107.43 105.66 118.53 124.89 107.43 124.06 106.95 105.66 117.57"/><polygon class="cls-2" points="130.65 131.82 111.41 120.72 111.41 142.93 130.65 154.03 149.88 142.93 149.88 120.72 130.65 131.82"/><polygon class="cls-2" points="130.65 154.03 111.41 142.93 111.41 120.72 130.65 131.82 130.65 154.03"/><polygon class="cls-3" points="149.88 142.93 130.65 154.03 130.65 131.82 149.88 120.72 149.88 142.93"/><polygon class="cls-2" points="130.65 131.82 111.41 120.72 130.64 109.62 149.88 120.72 130.65 131.82"/><polygon class="cls-4" points="130.65 131.82 111.41 120.72 111.41 121.68 130.65 132.79 149.88 121.68 149.88 120.72 130.65 131.82"/><polygon class="cls-15" points="180.66 98.08 167.54 90.5 180.66 82.93 193.78 90.5 180.66 98.08"/><polygon class="cls-15" points="80.68 99.83 67.56 92.25 80.68 84.68 93.8 92.25 80.68 99.83"/><polygon class="cls-2" points="130.65 43.41 111.41 32.3 111.41 54.51 130.65 65.61 149.88 54.51 149.88 32.3 130.65 43.41"/><polygon class="cls-2" points="130.65 65.61 111.41 54.51 111.41 32.3 130.65 43.41 130.65 65.61"/><polygon class="cls-3" points="149.88 54.51 130.65 65.61 130.65 43.41 149.88 32.3 149.88 54.51"/><polygon class="cls-2" points="130.65 43.41 111.41 32.3 130.64 21.2 149.88 32.3 130.65 43.41"/><polygon class="cls-4" points="130.65 43.41 111.41 32.3 111.41 33.27 130.65 44.37 149.88 33.27 149.88 32.3 130.65 43.41"/><polygon class="cls-2" points="155.63 57.66 136.39 46.56 136.39 68.77 155.63 79.87 174.86 68.77 174.86 46.56 155.63 57.66"/><polygon class="cls-2" points="155.63 79.87 136.39 68.77 136.39 46.56 155.63 57.66 155.63 79.87"/><polygon class="cls-3" points="174.86 68.77 155.63 79.87 155.63 57.66 174.86 46.56 174.86 68.77"/><polygon class="cls-2" points="155.63 57.66 136.39 46.56 155.63 35.45 174.86 46.56 155.63 57.66"/><polygon class="cls-4" points="155.63 57.66 136.39 46.56 136.39 47.52 155.63 58.62 174.86 47.52 174.86 46.56 155.63 57.66"/><polygon class="cls-2" points="180.61 71.92 161.38 60.81 161.38 83.02 180.61 94.12 199.84 83.02 199.84 60.81 180.61 71.92"/><polygon class="cls-2" points="180.61 94.12 161.38 83.02 161.38 60.81 180.61 71.92 180.61 94.12"/><polygon class="cls-3" points="199.84 83.02 180.61 94.12 180.61 71.92 199.84 60.81 199.84 83.02"/><polygon class="cls-2" points="180.61 71.92 161.38 60.81 180.61 49.71 199.84 60.81 180.61 71.92"/><polygon class="cls-4" points="180.61 71.92 161.38 60.81 161.38 61.77 180.61 72.88 199.84 61.77 199.84 60.81 180.61 71.92"/><polygon class="cls-2" points="105.66 58.62 86.43 47.52 86.43 69.73 105.66 80.83 124.89 69.73 124.89 47.52 105.66 58.62"/><polygon class="cls-2" points="105.66 80.83 86.43 69.73 86.43 47.52 105.66 58.62 105.66 80.83"/><polygon class="cls-3" points="124.89 69.73 105.66 80.83 105.66 58.62 124.89 47.52 124.89 69.73"/><polygon class="cls-2" points="105.66 58.62 86.43 47.52 105.66 36.42 124.89 47.52 105.66 58.62"/><polygon class="cls-4" points="105.66 58.62 86.43 47.52 86.43 48.48 105.66 59.59 124.89 48.48 124.89 47.52 105.66 58.62"/><polygon class="cls-2" points="80.68 73.84 61.44 62.74 61.44 84.95 80.68 96.05 99.91 84.95 99.91 62.74 80.68 73.84"/><polygon class="cls-2" points="80.68 96.05 61.44 84.95 61.44 62.74 80.68 73.84 80.68 96.05"/><polygon class="cls-3" points="99.91 84.95 80.68 96.05 80.68 73.84 99.91 62.74 99.91 84.95"/><polygon class="cls-2" points="80.68 73.84 61.44 62.74 80.68 51.63 99.91 62.74 80.68 73.84"/><polygon class="cls-4" points="80.68 73.84 61.44 62.74 61.44 63.7 80.68 74.81 99.91 63.7 99.91 62.74 80.68 73.84"/><polygon class="cls-15" points="130.65 128.56 117.52 120.99 130.64 113.41 143.76 120.99 130.65 128.56"/><polygon class="cls-15" points="105.66 114.31 92.54 106.73 105.66 99.16 118.78 106.73 105.66 114.31"/><polygon class="cls-15" points="155.63 113.34 142.51 105.77 155.63 98.19 168.75 105.77 155.63 113.34"/><polygon class="cls-2" points="130.65 73.23 111.41 62.13 111.41 84.34 130.65 95.44 149.88 84.34 149.88 62.13 130.65 73.23"/><polygon class="cls-2" points="130.65 95.44 111.41 84.34 111.41 62.13 130.65 73.23 130.65 95.44"/><polygon class="cls-3" points="149.88 84.34 130.65 95.44 130.65 73.23 149.88 62.13 149.88 84.34"/><polygon class="cls-2" points="130.65 73.23 111.41 62.13 130.64 51.02 149.88 62.13 130.65 73.23"/><polygon class="cls-4" points="130.65 73.23 112.25 62.61 111.41 63.09 130.65 74.2 149.88 63.09 149.04 62.61 130.65 73.23"/><polygon class="cls-2" points="155.63 87.49 136.39 76.38 136.39 98.59 155.63 109.7 174.86 98.59 174.86 76.38 155.63 87.49"/><polygon class="cls-2" points="155.63 109.7 136.39 98.59 136.39 76.38 155.63 87.49 155.63 109.7"/><polygon class="cls-3" points="174.86 98.59 155.63 109.7 155.63 87.49 174.86 76.38 174.86 98.59"/><polygon class="cls-2" points="155.63 87.49 136.39 76.38 155.63 65.28 174.86 76.38 155.63 87.49"/><polygon class="cls-4" points="155.63 87.49 137.23 76.86 136.39 77.35 155.63 88.45 174.86 77.35 174.86 76.38 155.63 87.49"/><polygon class="cls-2" points="105.66 88.45 86.43 77.35 86.43 99.56 105.66 110.66 124.89 99.56 124.89 77.35 105.66 88.45"/><polygon class="cls-2" points="105.66 110.66 86.43 99.56 86.43 77.35 105.66 88.45 105.66 110.66"/><polygon class="cls-3" points="124.89 99.56 105.66 110.66 105.66 88.45 124.89 77.35 124.89 99.56"/><polygon class="cls-2" points="105.66 88.45 86.43 77.35 105.66 66.24 124.89 77.35 105.66 88.45"/><polygon class="cls-4" points="105.66 88.45 86.43 77.35 86.43 78.31 105.66 89.42 124.89 78.31 124.06 77.83 105.66 88.45"/><polygon class="cls-2" points="130.65 102.71 111.41 91.6 111.41 113.81 130.65 124.92 149.88 113.81 149.88 91.6 130.65 102.71"/><polygon class="cls-2" points="130.65 124.92 111.41 113.81 111.41 91.6 130.65 102.71 130.65 124.92"/><polygon class="cls-3" points="149.88 113.81 130.65 124.92 130.65 102.71 149.88 91.6 149.88 113.81"/><polygon class="cls-2" points="130.65 102.71 111.41 91.6 130.64 80.5 149.88 91.6 130.65 102.71"/><polygon class="cls-4" points="130.65 102.71 111.41 91.6 111.41 92.56 130.65 103.67 149.88 92.57 149.88 91.6 130.65 102.71"/><path class="cls-16" d="M125.42,92.92,55.35,52.36a2.77,2.77,0,0,0-2.91-.2h0l-4.22,2.44,2.74,2v2.23l-1.55.65.08,83.37,4.62,4.46L70,156.38l50.21,28.42h2.07c.08,0,.2-.25.32-.58l2.07,1.2-.66,3.16,4.29-2.47h0c1-.53,1.55-1.77,1.55-3.55V101.29C129.81,98.07,127.84,94.32,125.42,92.92Zm-1.87,87.24L56,141a2.4,2.4,0,0,1-1-1.91V58.94l14,9,52.4,31.27,1.48,2.32.83,36.32Z"/><path class="cls-9" d="M128.42,96.23,121.86,100l1,1.5.83,36.32-.1,42.33-1.22-.7c0,1.31,1.65,7.76,1.65,9.12l3.49-2,.8-.47h0c1-.53,1.55-1.77,1.55-3.55V101.29A10.94,10.94,0,0,0,128.42,96.23Z"/><path class="cls-17" d="M121,95.47,50.94,54.9c-2.42-1.39-4.38.09-4.38,3.32v81.26c0,3.23,2,7,4.38,8.37L121,188.42c2.42,1.39,4.38-.09,4.38-3.32V103.84C125.39,100.61,123.43,96.86,121,95.47Zm.38,87.21c0,.74-.45,1.07-1,.76L51.56,143.59a2.41,2.41,0,0,1-1-1.91v-81c0-.74.45-1.07,1-.76l68.83,39.85a2.41,2.41,0,0,1,1,1.91Z"/><path class="cls-18" d="M121,95.47,50.94,54.9c-2.42-1.39-4.38.09-4.38,3.32v81.26c0,3.23,2,7,4.38,8.37L121,188.42c2.42,1.39,4.38-.09,4.38-3.32V103.84C125.39,100.61,123.43,96.86,121,95.47Zm.38,87.21c0,.74-.45,1.07-1,.76L51.56,143.59a2.41,2.41,0,0,1-1-1.91v-81c0-.74.45-1.07,1-.76l68.83,39.85a2.41,2.41,0,0,1,1,1.91Z"/><path class="cls-4" d="M56,141a2.4,2.4,0,0,1-1-1.91V61.85l-3.41-2c-.55-.31-1,0-1,.76v81a2.41,2.41,0,0,0,1,1.91l68.83,39.85c.55.31,1,0,1-.76v-3.76Z"/><path class="cls-19" d="M121.39,182.68c0,.74-.45,1.07-1,.76L51.56,143.59a2.41,2.41,0,0,1-1-1.91v-81c0-.74.45-1.07,1-.76l68.83,39.85a2.41,2.41,0,0,1,1,1.91Z"/><path class="cls-20" d="M129.79,101.29v81.27c0,1.78.6,3,1.54,3.55h0l4.28,2.47-.66-3.16,2.08-1.2c.11.33.23.58.32.58h2.06l50.21-28.42,15.85-9.09,4.62-4.46.09-83.37-1.56-.65V56.58l2.75-2-4.22-2.44h0a2.77,2.77,0,0,0-2.91.2L134.17,92.92C131.75,94.32,129.79,98.07,129.79,101.29ZM136,137.83l.82-36.32,1.49-2.32,52.39-31.27,14-9v80.19a2.4,2.4,0,0,1-1,1.91l-67.57,39.12Z"/><path class="cls-9" d="M129.79,101.29v81.27c0,1.78.6,3,1.54,3.55h0l4.28,2.47-.66-3.16,2.08-1.2c.11.33.23.58.32.58h2.06l50.21-28.42,15.85-9.09,4.62-4.46.09-83.37-1.56-.65V56.58l2.75-2-4.22-2.44h0a2.77,2.77,0,0,0-2.91.2L134.17,92.92C131.75,94.32,129.79,98.07,129.79,101.29ZM136,137.83l.82-36.32,1.49-2.32,52.39-31.27,14-9v80.19a2.4,2.4,0,0,1-1,1.91l-67.57,39.12Z"/><path class="cls-21" d="M134.2,103.84V185.1c0,3.23,2,4.71,4.38,3.32l70.07-40.57c2.43-1.39,4.39-5.14,4.39-8.37V58.22c0-3.23-2-4.71-4.39-3.32L138.58,95.47C136.16,96.86,134.2,100.61,134.2,103.84Zm4-2.2a2.38,2.38,0,0,1,1-1.91L208,59.88c.56-.31,1,0,1,.76v81a2.38,2.38,0,0,1-1,1.91l-68.82,39.85c-.56.31-1,0-1-.76Z"/><path class="cls-22" d="M134.2,103.84V185.1c0,3.23,2,4.71,4.38,3.32l70.07-40.57c2.43-1.39,4.39-5.14,4.39-8.37V58.22c0-3.23-2-4.71-4.39-3.32L138.58,95.47C136.16,96.86,134.2,100.61,134.2,103.84Zm4-2.2a2.38,2.38,0,0,1,1-1.91L208,59.88c.56-.31,1,0,1,.76v81a2.38,2.38,0,0,1-1,1.91l-68.82,39.85c-.56.31-1,0-1-.76Z"/><path class="cls-4" d="M50.67,60.1c-.42-.08-.72.25-.72.86v81a2.41,2.41,0,0,0,1,1.91l68.83,39.84a.57.57,0,0,0,.89-.23,1.19,1.19,0,0,1-.28-.1L51.56,143.57a2.41,2.41,0,0,1-1-1.91v-81A1.14,1.14,0,0,1,50.67,60.1Z"/><path class="cls-4" d="M121,95.45,50.94,54.88a2.71,2.71,0,0,0-3.13-.05,3,3,0,0,1,2.52.39L120.4,95.78c2.42,1.4,4.38,5.15,4.38,8.38v81.26a4.14,4.14,0,0,1-1.26,3.37c1.13-.41,1.87-1.73,1.87-3.71V103.82C125.39,100.59,123.43,96.84,121,95.45Z"/><path class="cls-2" d="M208.93,60.1c.41-.08.72.25.72.86v81a2.41,2.41,0,0,1-1,1.91l-68.83,39.84a.58.58,0,0,1-.9-.23,1.25,1.25,0,0,0,.29-.1L208,143.57a2.38,2.38,0,0,0,1-1.91v-81A1.3,1.3,0,0,0,208.93,60.1Z"/><path class="cls-2" d="M138.58,95.45l70.07-40.57a2.71,2.71,0,0,1,3.13-.05,3,3,0,0,0-2.51.39L139.2,95.78c-2.42,1.4-4.38,5.15-4.38,8.38v81.26a4.17,4.17,0,0,0,1.25,3.37c-1.13-.41-1.87-1.73-1.87-3.71V103.82C134.2,100.59,136.16,96.84,138.58,95.45Z"/><path class="cls-4" d="M203.62,141a2.4,2.4,0,0,0,1-1.91V61.85l3.41-2c.56-.31,1,0,1,.76v81a2.38,2.38,0,0,1-1,1.91l-68.82,39.85c-.56.31-1,0-1-.76v-3.76Z"/><path class="cls-7" d="M138.21,182.68c0,.74.44,1.07,1,.76L208,143.59a2.38,2.38,0,0,0,1-1.91v-81c0-.74-.44-1.07-1-.76L139.21,99.73a2.38,2.38,0,0,0-1,1.91Z"/><path class="cls-2" d="M50.67,60.1c-.42-.08-.72.25-.72.86v81a2.41,2.41,0,0,0,1,1.91l68.83,39.84a.57.57,0,0,0,.89-.23,1.19,1.19,0,0,1-.28-.1L51.56,143.57a2.41,2.41,0,0,1-1-1.91v-81A1.14,1.14,0,0,1,50.67,60.1Z"/><path class="cls-2" d="M121,95.45,50.94,54.88a2.71,2.71,0,0,0-3.13-.05,3,3,0,0,1,2.52.39L120.4,95.78c2.42,1.4,4.38,5.15,4.38,8.38v81.26a4.14,4.14,0,0,1-1.26,3.37c1.13-.41,1.87-1.73,1.87-3.71V103.82C125.39,100.59,123.43,96.84,121,95.45Z"/><path class="cls-23" d="M134.87,92.53,205.29,52c1.54-.89,2.32-2,2.31-3.11h0v-5l-2.41,2.16-2.07-1.21c.22-.26.38-.49.34-.56l-1-1.79L152.75,13.18,137,4l-6.17-1.78L58.5,43.75l.21,1.67-1.93,1.11-3.1-1.39V50h0a2.78,2.78,0,0,0,1.62,2.42l70.13,40.48C127.84,94.31,132.07,94.14,134.87,92.53ZM163.45,69,131.57,86.37l-2.75-.13L75.57,56.44,60.82,48.82l69.49-40a2.38,2.38,0,0,1,2.15-.09l67.63,39Z"/><path class="cls-9" d="M129.79,93.85V86.28l1.77.09L163.46,69l36.63-21.22-1.22-.7c1.14-.66,7.56-2.45,8.73-3.13v5h0c0,1.08-.77,2.22-2.31,3.11L134.87,92.53A10.9,10.9,0,0,1,129.79,93.85Z"/><path class="cls-24" d="M134.87,87.43l70.42-40.56c2.8-1.61,3.11-4,.69-5.45L135.85,1c-2.41-1.4-6.64-1.23-9.44.38L56,41.89c-2.79,1.61-3.1,4-.68,5.45l70.12,40.47C127.85,89.21,132.08,89,134.87,87.43ZM131,85.06a2.38,2.38,0,0,1-2.15.09L59.94,45.39c-.56-.32-.49-.88.15-1.24L130.31,3.7a2.4,2.4,0,0,1,2.16-.09l68.88,39.76c.55.32.48.88-.16,1.24Z"/><path class="cls-25" d="M134.87,87.43l70.42-40.56c2.8-1.61,3.11-4,.69-5.45L135.85,1c-2.41-1.4-6.64-1.23-9.44.38L56,41.89c-2.79,1.61-3.1,4-.68,5.45l70.12,40.47C127.85,89.21,132.08,89,134.87,87.43ZM131,85.06a2.38,2.38,0,0,1-2.15.09L59.94,45.39c-.56-.32-.49-.88.15-1.24L130.31,3.7a2.4,2.4,0,0,1,2.16-.09l68.88,39.76c.55.32.48.88-.16,1.24Z"/><path class="cls-2" d="M201.35,42.68,132.47,2.92a2.4,2.4,0,0,0-2.16.09L60.09,43.46c-.51.29-.65.71-.39,1a1.11,1.11,0,0,1,.39-.34L130.31,3.7a2.4,2.4,0,0,1,2.16-.09l68.88,39.76a.71.71,0,0,1,.24.21A.58.58,0,0,0,201.35,42.68Z"/><path class="cls-2" d="M205.29,46.18,134.87,86.74c-2.79,1.61-7,1.78-9.44.38L55.31,46.65a3,3,0,0,1-1.6-2,2.68,2.68,0,0,0,1.6,2.72l70.12,40.47c2.42,1.4,6.65,1.23,9.44-.38l70.42-40.56c1.7-1,2.47-2.25,2.29-3.42A4.19,4.19,0,0,1,205.29,46.18Z"/><path class="cls-4" d="M132.46,8.71a2.38,2.38,0,0,0-2.15.09l-67,38.56-3.41-2c-.56-.32-.49-.88.15-1.24L130.31,3.7a2.4,2.4,0,0,1,2.16-.09l68.88,39.76c.55.32.48.88-.16,1.24l-3.26,1.88Z"/><path class="cls-19" d="M201.19,44.61c.64-.36.71-.92.16-1.24L132.47,3.61a2.4,2.4,0,0,0-2.16.09L60.09,44.15c-.64.36-.71.92-.15,1.24l68.88,39.76a2.38,2.38,0,0,0,2.15-.09Z"/></svg>