<svg width="319" height="112" viewBox="0 0 319 112" fill="none" xmlns="http://www.w3.org/2000/svg">
<path d="M14.6 17.93C15.6667 17.9287 16.7232 18.1378 17.7089 18.5454C18.6947 18.953 19.5904 19.5511 20.3446 20.3054C21.0989 21.0596 21.697 21.9553 22.1046 22.9411C22.5122 23.9268 22.7213 24.9833 22.72 26.05C22.72 26.26 22.72 26.46 22.72 26.67L65.76 48C67.3205 46.1584 69.3198 44.7396 71.5733 43.8745C73.8268 43.0095 76.2619 42.726 78.6539 43.0503C81.0458 43.3746 83.3175 44.2962 85.2594 45.7301C87.2012 47.164 88.7505 49.0639 89.7643 51.2545C90.7781 53.4451 91.2238 55.8558 91.0602 58.2641C90.8966 60.6724 90.1289 63.0007 88.8281 65.034C87.5272 67.0674 85.7352 68.7403 83.6173 69.8983C81.4993 71.0564 79.1238 71.6622 76.71 71.66C73.9745 71.665 71.2963 70.8765 69 69.39L39.31 90.48C39.806 91.7967 40.0568 93.193 40.05 94.6C40.0455 97.2682 39.1323 99.8552 37.4608 101.935C35.7893 104.015 33.4593 105.463 30.8545 106.041C28.2498 106.62 25.5257 106.293 23.1312 105.116C20.7367 103.939 18.8145 101.982 17.6813 99.5662C16.5482 97.1506 16.2717 94.4211 16.8974 91.8273C17.5231 89.2335 19.0136 86.9303 21.1235 85.297C23.2333 83.6637 25.8366 82.7978 28.5044 82.8419C31.1722 82.8861 33.7454 83.8377 35.8 85.54L64.62 65.05C63.5214 63.3327 62.8 61.4017 62.5035 59.3847C62.207 57.3678 62.3422 55.3108 62.9 53.35L20 32.1C19.0187 32.9784 17.8385 33.605 16.561 33.9257C15.2836 34.2463 13.9474 34.2514 12.6676 33.9406C11.3877 33.6297 10.2027 33.0122 9.21474 32.1413C8.22675 31.2704 7.46542 30.1723 6.99642 28.9416C6.52741 27.7109 6.36481 26.3845 6.52263 25.077C6.68044 23.7694 7.15395 22.5199 7.9023 21.4361C8.65065 20.3524 9.6514 19.4669 10.8182 18.8561C11.9851 18.2452 13.283 17.9274 14.6 17.93V17.93ZM14.6 12.44C12.5607 12.4352 10.5464 12.8887 8.7059 13.7671C6.86544 14.6454 5.24589 15.9261 3.96695 17.5146C2.68801 19.103 1.78238 20.9585 1.31699 22.944C0.851603 24.9295 0.838354 26.9943 1.27822 28.9856C1.71809 30.9769 2.59984 32.8439 3.85828 34.4486C5.11673 36.0533 6.71971 37.3547 8.54875 38.2566C10.3778 39.1585 12.3861 39.6379 14.4253 39.6592C16.4645 39.6806 18.4825 39.2434 20.33 38.38L56.88 56.48C56.88 56.75 56.88 57.02 56.88 57.29C56.881 59.2941 57.1844 61.2865 57.78 63.2L35.58 79C32.1955 77.4339 28.3945 77.0074 24.7471 77.7846C21.0997 78.5618 17.8027 80.5008 15.3506 83.3106C12.8986 86.1204 11.4238 89.6495 11.1474 93.3685C10.8711 97.0876 11.8081 100.796 13.8179 103.937C15.8277 107.079 18.802 109.484 22.2944 110.791C25.7869 112.099 29.6092 112.239 33.188 111.19C36.7668 110.142 39.909 107.961 42.1433 104.975C44.3776 101.989 45.5835 98.3593 45.58 94.63C45.5802 94.0422 45.5502 93.4547 45.49 92.87L69.49 75.8C71.7977 76.7142 74.2578 77.1825 76.74 77.18C79.8885 77.1842 82.993 76.4398 85.7972 75.0081C88.6014 73.5764 91.025 71.4986 92.8682 68.9459C94.7113 66.3932 95.9211 63.4389 96.3977 60.3266C96.8744 57.2144 96.6042 54.0334 95.6096 51.0461C94.6149 48.0588 92.9243 45.3507 90.6771 43.1454C88.4299 40.9401 85.6906 39.3007 82.6851 38.3624C79.6796 37.4241 76.4941 37.2138 73.3913 37.7489C70.2886 38.284 67.3576 39.5492 64.84 41.44L27.89 23.12C27.2175 20.0949 25.5349 17.3889 23.1193 15.4477C20.7036 13.5065 17.699 12.4457 14.6 12.44V12.44Z" fill="url(#paint0_linear)"/>
<path d="M48.76 2.06447e-07C46.3007 -0.0019775 43.8961 0.7256 41.8505 2.09067C39.8049 3.45573 38.2101 5.39693 37.2681 7.66862C36.3261 9.94032 36.0791 12.4404 36.5584 14.8525C37.0377 17.2646 38.2217 19.4804 39.9607 21.2193C41.6996 22.9583 43.9154 24.1423 46.3275 24.6216C48.7396 25.1009 51.2397 24.8539 53.5114 23.9119C55.7831 22.9699 57.7243 21.3751 59.0893 19.3295C60.4544 17.2839 61.182 14.8793 61.18 12.42C61.1774 9.12682 59.868 5.96929 57.5393 3.64066C55.2107 1.31203 52.0532 0.00264852 48.76 2.06447e-07V2.06447e-07ZM48.76 19.39C47.3755 19.39 46.0222 18.9795 44.871 18.2103C43.7199 17.4411 42.8227 16.3479 42.2928 15.0688C41.763 13.7897 41.6244 12.3822 41.8945 11.0244C42.1646 9.6665 42.8313 8.41922 43.8103 7.44025C44.7892 6.46128 46.0365 5.7946 47.3944 5.5245C48.7522 5.25441 50.1597 5.39303 51.4388 5.92284C52.7179 6.45266 53.8111 7.34986 54.5803 8.50101C55.3495 9.65215 55.76 11.0055 55.76 12.39C55.76 14.2465 55.0225 16.027 53.7097 17.3397C52.397 18.6525 50.6165 19.39 48.76 19.39V19.39Z" fill="url(#paint1_linear)"/>
<path d="M125.075 49.565H121.47V58H115.555V34.9H126.58C129.38 34.9 131.527 35.53 133.02 36.79C134.537 38.05 135.295 39.87 135.295 42.25C135.295 43.93 134.91 45.33 134.14 46.45C133.37 47.57 132.25 48.3983 130.78 48.935L136.66 58H130.01L125.075 49.565ZM121.47 45.295H125.565C126.848 45.295 127.782 45.0617 128.365 44.595C128.948 44.1283 129.24 43.3817 129.24 42.355C129.24 41.3517 128.948 40.6167 128.365 40.15C127.782 39.6833 126.848 39.45 125.565 39.45H121.47V45.295ZM158.131 53.345V58H139.686V34.9H157.676V39.555H145.706V44.245H155.226V48.62H145.706V53.345H158.131ZM167.786 39.555V44.455H177.306V49.11H167.786V58H161.766V34.9H179.721V39.555H167.786ZM201.642 53.345V58H183.197V34.9H201.187V39.555H189.217V44.245H198.737V48.62H189.217V53.345H201.642ZM214.797 49.565H211.192V58H205.277V34.9H216.302C219.102 34.9 221.248 35.53 222.742 36.79C224.258 38.05 225.017 39.87 225.017 42.25C225.017 43.93 224.632 45.33 223.862 46.45C223.092 47.57 221.972 48.3983 220.502 48.935L226.382 58H219.732L214.797 49.565ZM211.192 45.295H215.287C216.57 45.295 217.503 45.0617 218.087 44.595C218.67 44.1283 218.962 43.3817 218.962 42.355C218.962 41.3517 218.67 40.6167 218.087 40.15C217.503 39.6833 216.57 39.45 215.287 39.45H211.192V45.295ZM238.928 49.565H235.323V58H229.408V34.9H240.433C243.233 34.9 245.379 35.53 246.873 36.79C248.389 38.05 249.148 39.87 249.148 42.25C249.148 43.93 248.763 45.33 247.993 46.45C247.223 47.57 246.103 48.3983 244.633 48.935L250.513 58H243.863L238.928 49.565ZM235.323 45.295H239.418C240.701 45.295 241.634 45.0617 242.218 44.595C242.801 44.1283 243.093 43.3817 243.093 42.355C243.093 41.3517 242.801 40.6167 242.218 40.15C241.634 39.6833 240.701 39.45 239.418 39.45H235.323V45.295ZM266.768 52.785H258.788L257.178 58H251.123L259.243 34.9H266.453L274.538 58H268.343L266.768 52.785ZM265.508 48.69L263.828 43.16L262.813 39.52H262.743L261.798 43.125L260.048 48.69H265.508ZM294.83 53.345V58H277.225V34.9H283.245V53.345H294.83ZM307.31 34.55C309.503 34.55 311.37 34.8767 312.91 35.53C314.473 36.1833 315.92 37.245 317.25 38.715L313.855 42.635C313.085 41.4683 312.175 40.6167 311.125 40.08C310.098 39.52 308.861 39.24 307.415 39.24C306.201 39.24 305.268 39.45 304.615 39.87C303.961 40.29 303.635 40.85 303.635 41.55C303.635 42.1333 303.973 42.6117 304.65 42.985C305.35 43.335 306.528 43.6617 308.185 43.965C311.381 44.5483 313.656 45.4 315.01 46.52C316.386 47.64 317.075 49.215 317.075 51.245C317.075 52.715 316.655 53.9867 315.815 55.06C314.975 56.1333 313.808 56.95 312.315 57.51C310.845 58.07 309.176 58.35 307.31 58.35C304.696 58.35 302.573 58.035 300.94 57.405C299.306 56.7517 297.895 55.76 296.705 54.43L299.785 50.23C300.695 51.49 301.721 52.3767 302.865 52.89C304.008 53.4033 305.385 53.66 306.995 53.66C308.278 53.66 309.235 53.485 309.865 53.135C310.518 52.7617 310.845 52.2367 310.845 51.56C310.845 51.0233 310.495 50.5917 309.795 50.265C309.118 49.915 307.975 49.5883 306.365 49.285C304.381 48.8883 302.736 48.4217 301.43 47.885C300.146 47.325 299.143 46.5783 298.42 45.645C297.72 44.7117 297.37 43.5217 297.37 42.075C297.37 40.6283 297.755 39.3333 298.525 38.19C299.318 37.0467 300.461 36.16 301.955 35.53C303.471 34.8767 305.256 34.55 307.31 34.55Z" fill="#8466FF"/>
<path d="M133.42 75.08V76H124.08V62.8H133.1V63.72H125.08V68.82H131.42V69.76H125.08V75.08H133.42ZM142.606 72.52H137.106L135.666 76H134.626L139.266 64.8H140.446L145.106 76H144.046L142.606 72.52ZM142.266 71.66L140.266 66.88L139.866 65.72L139.446 66.88L137.466 71.66H142.266ZM150.86 64.64C153.074 64.64 154.56 65.4533 155.32 67.08L154.54 67.74C154.247 66.9533 153.8 66.3867 153.2 66.04C152.614 65.68 151.84 65.5 150.88 65.5C149.867 65.5 149.054 65.72 148.44 66.16C147.84 66.5867 147.54 67.12 147.54 67.76C147.54 68.24 147.7 68.6267 148.02 68.92C148.34 69.2133 148.734 69.4333 149.2 69.58C149.68 69.7133 150.327 69.86 151.14 70.02C152.087 70.1933 152.84 70.3733 153.4 70.56C153.974 70.7467 154.46 71.04 154.86 71.44C155.26 71.84 155.46 72.3933 155.46 73.1C155.46 73.7 155.274 74.2333 154.9 74.7C154.527 75.1667 154.007 75.5267 153.34 75.78C152.674 76.0333 151.907 76.16 151.04 76.16C149.787 76.16 148.734 75.9333 147.88 75.48C147.04 75.0267 146.467 74.3733 146.16 73.52L146.94 72.86C147.18 73.66 147.654 74.2667 148.36 74.68C149.08 75.0933 149.974 75.3 151.04 75.3C152.054 75.3 152.874 75.1133 153.5 74.74C154.14 74.3533 154.46 73.8267 154.46 73.16C154.46 72.68 154.3 72.3 153.98 72.02C153.66 71.7267 153.26 71.5133 152.78 71.38C152.314 71.2333 151.68 71.0867 150.88 70.94C149.934 70.7533 149.174 70.5733 148.6 70.4C148.027 70.2133 147.54 69.92 147.14 69.52C146.74 69.1067 146.54 68.5467 146.54 67.84C146.54 67.2667 146.714 66.7333 147.06 66.24C147.407 65.7467 147.907 65.36 148.56 65.08C149.227 64.7867 149.994 64.64 150.86 64.64ZM161.522 71.68V76H160.522V71.68L156.382 64.8H157.522L161.022 70.8L162.322 68.6L164.542 64.8H165.662L161.522 71.68ZM180.594 72.52H175.094L173.654 76H172.614L177.254 64.8H178.434L183.094 76H182.034L180.594 72.52ZM180.254 71.66L178.254 66.88L177.854 65.72L177.434 66.88L175.454 71.66H180.254ZM194.445 76H193.105L187.005 67.1L186.245 65.86H186.225L186.285 67.08V76H185.305V64.8H186.645L192.665 73.6L193.505 74.94H193.525L193.465 73.72V64.8H194.445V76ZM201.917 64.8C203.797 64.8 205.237 65.2733 206.237 66.22C207.237 67.1667 207.737 68.5333 207.737 70.32C207.737 72.16 207.237 73.5667 206.237 74.54C205.237 75.5133 203.797 76 201.917 76H198.117V64.8H201.917ZM201.977 75.14C203.524 75.14 204.704 74.7267 205.517 73.9C206.331 73.0733 206.737 71.88 206.737 70.32C206.737 68.8133 206.331 67.66 205.517 66.86C204.704 66.06 203.524 65.66 201.977 65.66H199.117V75.14H201.977ZM220.965 64.8C222.205 64.8 223.185 65.0933 223.905 65.68C224.625 66.2667 224.985 67.08 224.985 68.12C224.985 69.1333 224.625 69.9333 223.905 70.52C223.185 71.1067 222.205 71.4 220.965 71.4H217.965V76H216.965V64.8H220.965ZM220.965 70.54C221.938 70.54 222.685 70.3333 223.205 69.92C223.725 69.4933 223.985 68.8933 223.985 68.12C223.985 67.3333 223.725 66.7267 223.205 66.3C222.685 65.8733 221.938 65.66 220.965 65.66H217.965V70.54H220.965ZM235.35 76L232.09 71.2H232.05H228.59V76H227.59V64.8H232.05C233.25 64.8 234.19 65.0867 234.87 65.66C235.563 66.22 235.91 67 235.91 68C235.91 68.8267 235.67 69.5133 235.19 70.06C234.71 70.5933 234.037 70.94 233.17 71.1L236.53 76H235.35ZM228.59 70.34H232.03C232.963 70.34 233.677 70.14 234.17 69.74C234.663 69.34 234.91 68.76 234.91 68C234.91 67.2533 234.663 66.68 234.17 66.28C233.677 65.8667 232.963 65.66 232.03 65.66H228.59V70.34ZM245.614 72.52H240.114L238.674 76H237.634L242.274 64.8H243.454L248.114 76H247.054L245.614 72.52ZM245.274 71.66L243.274 66.88L242.874 65.72L242.454 66.88L240.474 71.66H245.274ZM259.352 73.08C259.072 74.0667 258.512 74.8267 257.672 75.36C256.832 75.8933 255.799 76.16 254.572 76.16C253.519 76.16 252.592 75.9267 251.792 75.46C250.992 74.9933 250.372 74.3267 249.932 73.46C249.492 72.5933 249.272 71.5733 249.272 70.4C249.272 69.2267 249.492 68.2067 249.932 67.34C250.372 66.4733 250.992 65.8067 251.792 65.34C252.606 64.8733 253.546 64.64 254.612 64.64C255.812 64.64 256.799 64.8933 257.572 65.4C258.359 65.8933 258.906 66.64 259.212 67.64L258.272 68.06C258.019 67.18 257.592 66.5333 256.992 66.12C256.406 65.7067 255.606 65.5 254.592 65.5C253.739 65.5 252.986 65.7 252.332 66.1C251.679 66.4867 251.172 67.0533 250.812 67.8C250.452 68.5333 250.272 69.4 250.272 70.4C250.272 71.4 250.452 72.2733 250.812 73.02C251.172 73.7533 251.672 74.32 252.312 74.72C252.966 75.1067 253.712 75.3 254.552 75.3C255.606 75.3 256.459 75.0867 257.112 74.66C257.766 74.22 258.192 73.5867 258.392 72.76L259.352 73.08ZM270.007 65.66H265.747V76H264.747V65.66H260.467V64.8H270.007V65.66ZM273.297 76H272.297V64.8H273.297V76ZM286.345 73.08C286.065 74.0667 285.505 74.8267 284.665 75.36C283.825 75.8933 282.791 76.16 281.565 76.16C280.511 76.16 279.585 75.9267 278.785 75.46C277.985 74.9933 277.365 74.3267 276.925 73.46C276.485 72.5933 276.265 71.5733 276.265 70.4C276.265 69.2267 276.485 68.2067 276.925 67.34C277.365 66.4733 277.985 65.8067 278.785 65.34C279.598 64.8733 280.538 64.64 281.605 64.64C282.805 64.64 283.791 64.8933 284.565 65.4C285.351 65.8933 285.898 66.64 286.205 67.64L285.265 68.06C285.011 67.18 284.585 66.5333 283.985 66.12C283.398 65.7067 282.598 65.5 281.585 65.5C280.731 65.5 279.978 65.7 279.325 66.1C278.671 66.4867 278.165 67.0533 277.805 67.8C277.445 68.5333 277.265 69.4 277.265 70.4C277.265 71.4 277.445 72.2733 277.805 73.02C278.165 73.7533 278.665 74.32 279.305 74.72C279.958 75.1067 280.705 75.3 281.545 75.3C282.598 75.3 283.451 75.0867 284.105 74.66C284.758 74.22 285.185 73.5867 285.385 72.76L286.345 73.08ZM295.438 72.52H289.938L288.498 76H287.458L292.098 64.8H293.278L297.938 76H296.878L295.438 72.52ZM295.098 71.66L293.098 66.88L292.698 65.72L292.278 66.88L290.298 71.66H295.098ZM308.129 75.14V76H300.149V64.8H301.149V75.14H308.129Z" fill="#4B3A81"/>
<defs>
<linearGradient id="paint0_linear" x1="47.77" y1="-4.98" x2="50.14" y2="104.41" gradientUnits="userSpaceOnUse">
<stop stop-color="#6432FF"/>
<stop offset="0.24" stop-color="#744DFF"/>
<stop offset="0.48" stop-color="#805FFF"/>
<stop offset="0.73" stop-color="#876AFF"/>
<stop offset="1" stop-color="#896EFF"/>
</linearGradient>
<linearGradient id="paint1_linear" x1="1214.19" y1="-124.3" x2="1273.11" y2="2595.38" gradientUnits="userSpaceOnUse">
<stop stop-color="#6432FF"/>
<stop offset="0.24" stop-color="#744DFF"/>
<stop offset="0.48" stop-color="#805FFF"/>
<stop offset="0.73" stop-color="#876AFF"/>
<stop offset="1" stop-color="#896EFF"/>
</linearGradient>
</defs>
</svg>
